<svg xmlns="http://www.w3.org/2000/svg" viewBox="0 0 154 109"><defs><style>.cls-1{fill:#fff;}.cls-2{fill:aqua;}</style></defs><g id="Layer_2" data-name="Layer 2"><g id="Layer_1-2" data-name="Layer 1"><path class="cls-1" d="M59.22,74.63a23.53,23.53,0,0,1-.61,2.74C55,89.93,54.79,89.11,52,94c-3.5,6.13-7.65,10-9.4,10.81-.74.37-1.49.71-2.21,1.12h0A16.44,16.44,0,0,1,34.52,108a63.25,63.25,0,0,1-17.81.17A25.26,25.26,0,0,1,11,107C0,101,0,91,0,89V76c0-.43,1.35-12,1.79-12H20.35a1.56,1.56,0,0,1,1.56,1.64L21.14,79.5A2.36,2.36,0,0,0,23.5,82H34.08a2.26,2.26,0,0,0,2.23-1.89L44,33H66Z"/><path class="cls-1" d="M137,109H115l5-34c0-.49,4.67-30.61,5-33L110,64l-5-8L97,42c.33,2.41-3,23.53-3,24l-7,43H66L78,34h24c0,.19,9,0,10,0h37Z"/><polygon class="cls-2" points="119 27 44 27 48 0 104 0 119 27"/><polygon class="cls-2" points="149 27 112 27 131 0 154 0 149 27"/></g></g></svg>